<svg xmlns="http://www.w3.org/2000/svg" width="16" height="16" viewBox="0 0 16 16">
  <title>Bookmark - 16 - Outline</title>
  <path d="M3.8,15.922A1.1,1.1,0,0,1,2.71,14.669l.609-4.36L.393,7.163a1.1,1.1,0,0,1,.616-1.833L5.089,4.6,7.016.734a1.1,1.1,0,0,1,1.969,0L10.911,4.6,15,5.331a1.1,1.1,0,0,1,.611,1.833L12.68,10.31l.609,4.359a1.1,1.1,0,0,1-1.6,1.127L8,13.873,4.308,15.8A1.093,1.093,0,0,1,3.8,15.922Zm-.415-1.9,0,0Zm9.228,0,0,0ZM2.981,7.01,5.432,9.645l-.5,3.572L8,11.618l3.067,1.6-.5-3.572L13.019,7.01l-3.45-.616L8,3.244,6.431,6.394Zm11.659.29h0ZM1.362,7.3h0Zm12.78-1.5v0ZM1.856,5.8v0Z"/>
</svg>
