<svg xmlns="http://www.w3.org/2000/svg" width="16" height="16" viewBox="0 0 16 16">
  <title>Cut - 16</title>
  <path d="M11.5,10a2.481,2.481,0,0,0-.379.038L3.977,1.214a2.5,2.5,0,0,0-.371,3.515L6.395,8.173l-1.51,1.866A2.486,2.486,0,0,0,4.5,10a2.522,2.522,0,1,0,2.329,1.609L8,10.159,9.172,11.6h0A2.5,2.5,0,1,0,11.5,10Zm-7,3.75A1.25,1.25,0,1,1,5.75,12.5,1.251,1.251,0,0,1,4.5,13.75Zm7,0a1.25,1.25,0,1,1,1.25-1.25A1.251,1.251,0,0,1,11.5,13.75Zm.9-9.021a2.5,2.5,0,0,0-.371-3.515L8.5,5.569l1.608,1.986Z"/>
</svg>
