<svg xmlns="http://www.w3.org/2000/svg" width="16" height="16" viewBox="0 0 16 16">
  <title>Extensions - 16</title>
  <path d="M14.5,8c-.971,0-1,1-1.75,1A.765.765,0,0,1,12,8.25V5a1,1,0,0,0-1-1H7.75A.765.765,0,0,1,7,3.25C7,2.5,8,2.471,8,1.5,8,.635,7.1,0,6,0S4,.635,4,1.5c0,.971,1,1,1,1.75A.765.765,0,0,1,4.25,4H1A1,1,0,0,0,0,5V7.25A.765.765,0,0,0,.75,8C1.5,8,1.529,7,2.5,7,3.365,7,4,7.9,4,9s-.635,2-1.5,2c-.971,0-1-1-1.75-1a.765.765,0,0,0-.75.75V15a1,1,0,0,0,1,1H4.25A.765.765,0,0,0,5,15.25c0-.75-1-.779-1-1.75,0-.865.9-1.5,2-1.5s2,.635,2,1.5c0,.971-1,1-1,1.75a.765.765,0,0,0,.75.75H11a1,1,0,0,0,1-1V11.75a.765.765,0,0,1,.75-.75c.75,0,.779,1,1.75,1,.865,0,1.5-.9,1.5-2S15.365,8,14.5,8Z"/>
</svg>
