<svg xmlns="http://www.w3.org/2000/svg" width="16" height="16" viewBox="0 0 16 16">
  <title>Private Browsing - 16</title>
  <path d="M12.377,11.961c-1.651,0-2.793-1.98-4.377-1.98s-2.824,1.98-4.377,1.98C1.586,11.961.082,10.037.057,6.74c-.015-2.047.6-2.7,3.242-2.7S6.719,5.12,8,5.12s2.056-1.08,4.7-1.08,3.257.653,3.242,2.7C15.918,10.037,14.414,11.961,12.377,11.961ZM4.6,6.56c-1.607.07-2.269,1.025-2.269,1.26s1.066.9,2.107.9S6.7,8.339,6.7,8A1.889,1.889,0,0,0,4.6,6.56Zm6.808,0A1.889,1.889,0,0,0,9.3,8c0,.339,1.228.72,2.269.72s2.107-.665,2.107-.9S13.012,6.629,11.4,6.56Z"/>
</svg>
